# xmcd CD database file
# Copyright (C) 1993-1998 Ti Kan
#
# Track frame offsets:
#	150
#	17957
#	39160
#	54092
#	84000
#	100987
#	120860
#	141705
#	159950
#	174710
#	188832
#	212610
#	227462
#	255400
#
# Disc length: 3623 seconds
#
# Revision: 0
# Processed by: cddbd v1.4b41PL1 Copyright (c) Steve Scherf et al.
# Submitted via: CDmax 1.5
#
DISCID=a40e250e
DTITLE=Barkin' Bill - Gotcha!
DYEAR=1900
DGENRE=
TTITLE0=Sufferin' Mind
TTITLE1=As Long As I Have You
TTITLE2=Down the Line
TTITLE3=Someday After Awhile
TTITLE4=Too Fine For Cryin'
TTITLE5=You're Too Much
TTITLE6=Blue Guitar
TTITLE7=Get Your Kicks
TTITLE8=I Love To Love You
TTITLE9=One Kiss
TTITLE10=I Got What I Wanted
TTITLE11=Hot Tomato
TTITLE12=No Rollin' Blues
TTITLE13=What Makes These Things Happen To Me
EXTD=
EXTT0=
EXTT1=
EXTT2=
EXTT3=
EXTT4=
EXTT5=
EXTT6=
EXTT7=
EXTT8=
EXTT9=
EXTT10=
EXTT11=
EXTT12=
EXTT13=
PLAYORDER=
